<svg xmlns="http://www.w3.org/2000/svg" version="1.1" xmlns:xlink="http://www.w3.org/1999/xlink" width="1000" height="1000"><style>
    #light-icon {
      display: inline;
    }
    #dark-icon {
      display: none;
    }

    @media (prefers-color-scheme: dark) {
      #light-icon {
        display: none;
      }
      #dark-icon {
        display: inline;
      }
    }
  </style><g id="light-icon"><svg xmlns="http://www.w3.org/2000/svg" version="1.1" xmlns:xlink="http://www.w3.org/1999/xlink" width="1000" height="1000"><g><g transform="matrix(15.625,0,0,15.625,0,0)"><svg xmlns="http://www.w3.org/2000/svg" version="1.1" xmlns:xlink="http://www.w3.org/1999/xlink" width="64" height="64"><svg width="64" height="64" viewBox="0 0 64 64" fill="none" xmlns="http://www.w3.org/2000/svg">
<g clip-path="url(#clip0_3_6)">
<rect width="64" height="64" fill="white"></rect>
<path d="M26.8087 45.1C26.8087 43.5833 27.3453 42.265 28.4187 41.145C29.5153 40.025 30.857 39.465 32.4437 39.465C34.077 39.465 35.4303 40.025 36.5037 41.145C37.6003 42.265 38.1487 43.5833 38.1487 45.1C38.1487 46.6867 37.6003 48.04 36.5037 49.16C35.4303 50.2567 34.077 50.805 32.4437 50.805C30.857 50.805 29.5153 50.2567 28.4187 49.16C27.3453 48.04 26.8087 46.6867 26.8087 45.1ZM26.8087 19.865C26.8087 18.7917 27.0537 17.835 27.5437 16.995C28.0337 16.155 28.7103 15.49 29.5737 15C30.437 14.4867 31.3937 14.23 32.4437 14.23C34.077 14.23 35.4303 14.7783 36.5037 15.875C37.6003 16.9717 38.1487 18.3017 38.1487 19.865C38.1487 21.405 37.6003 22.7467 36.5037 23.89C35.4303 25.01 34.077 25.57 32.4437 25.57C30.857 25.57 29.5153 25.01 28.4187 23.89C27.3453 22.7467 26.8087 21.405 26.8087 19.865Z" fill="#9C6DFF"></path>
</g>
<defs>
<clipPath id="clip0_3_6">
<rect width="64" height="64" fill="white"></rect>
</clipPath>
</defs>
</svg></svg></g></g></svg></g><g id="dark-icon"><svg xmlns="http://www.w3.org/2000/svg" version="1.1" xmlns:xlink="http://www.w3.org/1999/xlink" width="1000" height="1000"><g><g transform="matrix(15.625,0,0,15.625,0,0)"><svg xmlns="http://www.w3.org/2000/svg" version="1.1" xmlns:xlink="http://www.w3.org/1999/xlink" width="64" height="64"><svg width="64" height="64" viewBox="0 0 64 64" fill="none" xmlns="http://www.w3.org/2000/svg">
<g clip-path="url(#clip0_6_2)">
<rect width="64" height="64" fill="#222222"></rect>
<path d="M26.8087 45.1C26.8087 43.5833 27.3453 42.265 28.4187 41.145C29.5153 40.025 30.857 39.465 32.4437 39.465C34.077 39.465 35.4303 40.025 36.5037 41.145C37.6003 42.265 38.1487 43.5833 38.1487 45.1C38.1487 46.6867 37.6003 48.04 36.5037 49.16C35.4303 50.2567 34.077 50.805 32.4437 50.805C30.857 50.805 29.5153 50.2567 28.4187 49.16C27.3453 48.04 26.8087 46.6867 26.8087 45.1ZM26.8087 19.865C26.8087 18.7917 27.0537 17.835 27.5437 16.995C28.0337 16.155 28.7103 15.49 29.5737 15C30.437 14.4867 31.3937 14.23 32.4437 14.23C34.077 14.23 35.4303 14.7783 36.5037 15.875C37.6003 16.9717 38.1487 18.3017 38.1487 19.865C38.1487 21.405 37.6003 22.7467 36.5037 23.89C35.4303 25.01 34.077 25.57 32.4437 25.57C30.857 25.57 29.5153 25.01 28.4187 23.89C27.3453 22.7467 26.8087 21.405 26.8087 19.865Z" fill="#9C6DFF"></path>
</g>
<defs>
<clipPath id="clip0_6_2">
<rect width="64" height="64" fill="white"></rect>
</clipPath>
</defs>
</svg></svg></g></g></svg></g></svg>